<?xml version="1.0" standalone="no"?>
<!DOCTYPE svg PUBLIC "-//W3C//DTD SVG 20010904//EN"
 "http://www.w3.org/TR/2001/REC-SVG-20010904/DTD/svg10.dtd">
<svg version="1.0" xmlns="http://www.w3.org/2000/svg"
 width="584.000000pt" height="584.000000pt" viewBox="0 0 584.000000 584.000000"
 preserveAspectRatio="xMidYMid meet">
<metadata>
Created by potrace 1.11, written by Peter Selinger 2001-2013
</metadata>
<g transform="translate(0.000000,584.000000) scale(0.100000,-0.100000)"
fill="#000000" stroke="none">
<path d="M3150 5739 c-41 -16 -138 -51 -215 -79 -77 -27 -162 -59 -190 -69
-66 -25 -184 -67 -380 -136 -88 -31 -176 -62 -195 -70 -19 -7 -132 -48 -250
-90 -118 -42 -224 -80 -235 -84 -38 -17 -222 -81 -231 -81 -6 0 -15 -5 -22
-12 -10 -10 -5 -16 20 -29 29 -14 217 -124 534 -310 98 -58 101 -61 99 -92 -2
-18 -6 -70 -9 -117 -4 -47 -9 -101 -11 -120 -4 -38 -12 -131 -20 -250 -3 -41
-7 -83 -8 -92 -2 -10 -43 -43 -93 -73 -242 -152 -465 -368 -613 -595 -62 -94
-156 -291 -190 -395 -24 -75 -45 -161 -65 -270 -30 -161 -25 -456 10 -635 74
-380 288 -744 593 -1008 36 -32 72 -63 79 -70 8 -7 64 -46 126 -86 126 -83
255 -148 401 -200 55 -20 105 -40 112 -44 6 -4 127 -149 268 -322 141 -173
263 -322 272 -330 13 -13 16 -13 28 3 7 10 48 61 92 114 43 53 134 164 201
247 68 83 140 171 160 195 21 24 46 56 57 71 13 18 38 34 75 45 449 139 872
496 1099 927 90 172 160 397 179 573 11 112 7 433 -7 515 -64 373 -217 669
-493 955 -42 44 -101 100 -132 125 -49 41 -54 48 -50 80 9 85 28 339 28 395 1
44 -1 50 -19 48 -11 -1 -54 -5 -95 -9 -94 -10 -335 -10 -414 0 -86 10 -179 31
-273 61 -86 27 -108 40 -67 40 13 0 24 -3 24 -6 0 -8 456 -3 495 5 27 5 57 11
125 22 24 4 130 26 140 29 3 1 12 4 20 8 8 3 31 10 50 16 49 14 153 51 303
109 70 27 127 49 128 48 3 -4 11 -208 13 -307 l1 -116 26 21 c14 11 24 27 21
34 -3 8 5 16 18 19 16 4 18 8 8 14 -10 7 -9 9 3 9 15 0 16 19 13 176 -3 143 0
181 11 198 8 11 15 17 15 14 0 -4 35 5 78 20 66 24 77 31 80 53 2 19 -4 27
-25 36 -27 11 -98 51 -250 137 -37 21 -93 52 -123 69 -30 17 -165 92 -300 167
-135 75 -272 152 -305 170 -33 18 -94 52 -135 75 -41 23 -97 55 -125 70 -258
143 -319 177 -352 193 l-38 19 -75 -28z"/>
<path d="M4730 4249 c11 -20 21 -53 22 -73 2 -48 18 -47 18 2 0 28 -8 47 -30
72 l-30 35 20 -36z"/>
<path d="M4551 4218 c-5 -13 -7 -30 -5 -38 1 -8 3 -21 3 -27 1 -7 4 -13 9 -13
4 0 7 23 8 50 1 55 -3 61 -15 28z"/>
<path d="M4566 4117 c3 -10 9 -15 12 -12 3 3 0 11 -7 18 -10 9 -11 8 -5 -6z"/>
<path d="M4737 4116 c-4 -10 -1 -13 9 -9 15 6 19 23 5 23 -5 0 -11 -7 -14 -14z"/>
<path d="M4586 4074 c-7 -17 -8 -70 -2 -63 6 6 17 79 12 79 -2 0 -7 -7 -10
-16z"/>
</g>
</svg>
